<svg width="860" height="926" viewBox="0 0 860 926" fill="none" xmlns="http://www.w3.org/2000/svg">
<g clip-path="url(#clip0_3_174)">
<rect width="860" height="926" fill="#5C89C4"/>
<path d="M323.001 0H430V30H395L430 93.5V211H356.337L340.001 183H413.001V126L357 30H323.001V0Z" fill="#A5A196"/>
<path d="M537 0H430V30H465L430 93.5V211H503.664L520 183H447V126L503 30H537V0Z" fill="#A5A196"/>
<path d="M216 309H323V339H288L323 402.5V520H249.336L233 492H306V435L250 339H216V309Z" fill="#A5A196"/>
<path d="M429.999 309H323V339H357.999L323 402.5V520H396.663L412.999 492H339.999V435L395.999 339H429.999V309Z" fill="#A5A196"/>
<path d="M2 618H109V648H73.9999L109 711.5V829H35.3359L19 801H92V744L35.9999 648H2V618Z" fill="#A5A196"/>
<path d="M215.999 618H109V648H143.999L109 711.5V829H182.663L198.999 801H125.999V744L181.999 648H215.999V618Z" fill="#A5A196"/>
<path d="M430 618H537V648H502L537 711.5V829H463.336L447 801H520V744L464 648H430V618Z" fill="#A5A196"/>
<path d="M643.999 618H537V648H571.999L537 711.5V829H610.663L626.999 801H553.999V744L609.999 648H643.999V618Z" fill="#A5A196"/>
<path d="M537 0H644V30H609L644 93.5V211H570.336L554 183H627V126L571 30H537V0Z" fill="#3374B1"/>
<path d="M750.999 0H644V30H678.999L644 93.5V211H717.663L733.999 183H660.999V126L716.999 30H750.999V0Z" fill="#3374B1"/>
<path d="M429.999 309H537V339H502L537 402.5V520H463.336L447 492H520V435L464 339H429.999V309Z" fill="#3374B1"/>
<path d="M643.999 309H537V339H571.999L537 402.5V520H610.663L626.999 492H553.999V435L609.999 339H643.999V309Z" fill="#3374B1"/>
<path d="M643.999 618H751V648H716L751 711.5V829H677.336L661 801H734V744L678 648H643.999V618Z" fill="#3374B1"/>
<path d="M857.999 618H751V648H785.999L751 711.5V829H824.663L840.999 801H767.999V744L823.999 648H857.999V618Z" fill="#3374B1"/>
<path d="M109 0H216V30H181L216 93.5V211H142.336L126 183H199V126L143 30H109V0Z" fill="#335C88"/>
<path d="M322.999 0H216V30H250.999L216 93.5V211H289.663L305.999 183H232.999V126L288.999 30H322.999V0Z" fill="#335C88"/>
<path d="M2 309H109V339H73.9999L109 402.5V520H35.3359L19 492H92V435L35.9999 339H2V309Z" fill="#335C88"/>
<path d="M216 309H109V339H143.999L109 402.5V520H182.663L198.999 492H125.999V435L181.999 339H216V309Z" fill="#335C88"/>
<path d="M215.999 618H323V648H288L323 711.5V829H249.336L233 801H306V744L250 648H215.999V618Z" fill="#335C88"/>
<path d="M430 618H323V648H357.999L323 711.5V829H396.663L412.999 801H339.999V744L395.999 648H430V618Z" fill="#335C88"/>
<path d="M-105 0H1.99986V30H-33.0001L1.99986 93.5V211H-71.6641L-88 183H-15V126L-71.0001 30H-105V0Z" fill="#A5A196"/>
<path d="M109 0H1.99986V30H36.9994L1.99986 93.5V211H75.6633L91.9993 183H18.9993V126L74.9994 30H109V0Z" fill="#A5A196"/>
<path d="M750.999 0H858V30H823L858 93.5V211H784.336L768 183H841V126L785 30H750.999V0Z" fill="#A5A196"/>
<path d="M964.999 0H858V30H892.999L858 93.5V211H931.663L947.999 183H874.999V126L930.999 30H964.999V0Z" fill="#A5A196"/>
<path d="M643.999 309H751V339H716L751 402.5V520H677.336L661 492H734V435L678 339H643.999V309Z" fill="#A5A196"/>
<path d="M857.999 309H751V339H785.999L751 402.5V520H824.663L840.999 492H767.999V435L823.999 339H857.999V309Z" fill="#A5A196"/>
<path d="M643.999 309H537L537 279H572L537 215.5V98H610.664L627 126H554L554 183L610 279H644L643.999 309Z" fill="#335C88"/>
<path d="M430.001 309H537L537 279H502L537 215.5V98H463.337L447 126H520.001L520 183L464 279H430.001V309Z" fill="#335C88"/>
<path d="M751 618H643.999L643.999 588H678.999L643.999 524.5V407H717.663L734 435H660.999L661 492L716.999 588H750.999L751 618Z" fill="#335C88"/>
<path d="M537 618H643.999L643.999 588H609L643.999 524.5V407H570.336L553.999 435H627L626.999 492L571 588H537L537 618Z" fill="#335C88"/>
<path d="M108.999 927H1.9994V897H36.9994L1.9994 833.5V716H75.6633L92 744H18.9993L19 801L74.9994 897H108.999V927Z" fill="#335C88"/>
<path d="M-105 927H1.9994V897H-33.0001L1.9994 833.5V716H-71.6641L-88 744H-15V801L-71.0001 897H-105V927Z" fill="#335C88"/>
<path d="M964.999 927H857.999V897H892.999L857.999 833.5V716H931.663L947.999 744H874.999V801L930.999 897H964.999V927Z" fill="#335C88"/>
<path d="M751 927H857.999V897H823L857.999 833.5V716H784.336L767.999 744H841L840.999 801L785 897H751V927Z" fill="#335C88"/>
<path d="M429.999 309H323L322.999 279H357.999L322.999 215.5V98H396.663L412.999 126H339.999V183L395.999 279H429.999V309Z" fill="#719FD1"/>
<path d="M216 309H323L322.999 279H288L322.999 215.5V98H249.336L232.999 126H306L305.999 183L250 279H216V309Z" fill="#719FD1"/>
<path d="M109 618H2L1.9994 588H36.9994L1.9994 524.5V407H75.6633L92 435H18.9993L19 492L74.9994 588H108.999L109 618Z" fill="#719FD1"/>
<path d="M-105 618H2L1.9994 588H-33.0001L1.9994 524.5V407H-71.6641L-88 435H-15V492L-71.0001 588H-105V618Z" fill="#719FD1"/>
<path d="M322.999 927H215.999V897H250.999L215.999 833.5V716H289.663L306 744H232.999L233 801L288.999 897H322.999V927Z" fill="#719FD1"/>
<path d="M108.999 927H215.999V897H181L215.999 833.5V716H142.336L125.999 744H199L198.999 801L143 897H108.999V927Z" fill="#719FD1"/>
<path d="M537 618H430L429.999 588H464.999L429.999 524.5V407H503.663L520 435H446.999L447 492L502.999 588H537L537 618Z" fill="#719FD1"/>
<path d="M323 618H430L429.999 588H395L429.999 524.5V407H356.336L339.999 435H413L412.999 492L357 588H323L323 618Z" fill="#719FD1"/>
<path d="M751 927H643.999V897H678.999L643.999 833.5V716H717.663L734 744H660.999L661 801L716.999 897H751V927Z" fill="#719FD1"/>
<path d="M537 927H643.999V897H609L643.999 833.5V716H570.336L553.999 744H627L626.999 801L571 897H537V927Z" fill="#719FD1"/>
<path d="M857.999 309H751L750.999 279H785.999L750.999 215.5V98H824.663L841 126H767.999L768 183L823.999 279H857.999V309Z" fill="#719FD1"/>
<path d="M643.999 309H751L750.999 279H716L750.999 215.5V98H677.336L660.999 126H734L733.999 183L678 279H644L643.999 309Z" fill="#719FD1"/>
<path d="M964.999 618H857.999L857.999 588H892.999L857.999 524.5V407H931.663L947.999 435H874.999V492L930.999 588H964.999V618Z" fill="#719FD1"/>
<path d="M751 618H857.999L857.999 588H823L857.999 524.5V407H784.336L767.999 435H841L840.999 492L785 588H750.999L751 618Z" fill="#719FD1"/>
<path d="M216 309H109L108.999 279H143.999L108.999 215.5V98H182.663L199 126H125.999L126 183L181.999 279H216V309Z" fill="#3374B1"/>
<path d="M2 309H109L108.999 279H73.9999L108.999 215.5V98H35.3359L18.9993 126H92L91.9993 183L35.9999 279H2V309Z" fill="#3374B1"/>
<path d="M323 618H215.999L215.999 588H250.999L215.999 524.5V407H289.663L306 435H232.999L233 492L288.999 588H323L323 618Z" fill="#3374B1"/>
<path d="M109 618H215.999L215.999 588H181L215.999 524.5V407H142.336L125.999 435H199L198.999 492L143 588H108.999L109 618Z" fill="#3374B1"/>
<path d="M537 927H429.999V897H464.999L429.999 833.5V716H503.663L520 744H446.999L447 801L502.999 897H537V927Z" fill="#3374B1"/>
<path d="M322.999 927H429.999V897H395L429.999 833.5V716H356.336L339.999 744H413L412.999 801L357 897H322.999V927Z" fill="#3374B1"/>
</g>
<defs>
<clipPath id="clip0_3_174">
<rect width="860" height="926" fill="white"/>
</clipPath>
</defs>
</svg>
