<svg width="856" height="926" viewBox="0 0 856 926" fill="none" xmlns="http://www.w3.org/2000/svg">
<g clip-path="url(#clip0_3_174)">
<rect width="856" height="926" fill="#5C89C4"/>
<path d="M321.001 -1H428V29H393L428 92.5V210H354.337L338.001 182H411.001V125L355 29H321.001V-1Z" fill="#A5A196"/>
<path d="M535 -1H428V29H463L428 92.5V210H501.664L518 182H445V125L501 29H535V-1Z" fill="#A5A196"/>
<path d="M214 308H321V338H286L321 401.5V519H247.336L231 491H304V434L248 338H214V308Z" fill="#A5A196"/>
<path d="M427.999 308H321V338H355.999L321 401.5V519H394.663L410.999 491H337.999V434L393.999 338H427.999V308Z" fill="#A5A196"/>
<path d="M0 617H107V647H71.9999L107 710.5V828H33.3359L17 800H90V743L33.9999 647H0V617Z" fill="#A5A196"/>
<path d="M213.999 617H107V647H141.999L107 710.5V828H180.663L196.999 800H123.999V743L179.999 647H213.999V617Z" fill="#A5A196"/>
<path d="M428 617H535V647H500L535 710.5V828H461.336L445 800H518V743L462 647H428V617Z" fill="#A5A196"/>
<path d="M641.999 617H535V647H569.999L535 710.5V828H608.663L624.999 800H551.999V743L607.999 647H641.999V617Z" fill="#A5A196"/>
<path d="M535 -1H642V29H607L642 92.5V210H568.336L552 182H625V125L569 29H535V-1Z" fill="#3374B1"/>
<path d="M748.999 -1H642V29H676.999L642 92.5V210H715.663L731.999 182H658.999V125L714.999 29H748.999V-1Z" fill="#3374B1"/>
<path d="M427.999 308H535V338H500L535 401.5V519H461.336L445 491H518V434L462 338H427.999V308Z" fill="#3374B1"/>
<path d="M641.999 308H535V338H569.999L535 401.5V519H608.663L624.999 491H551.999V434L607.999 338H641.999V308Z" fill="#3374B1"/>
<path d="M641.999 617H749V647H714L749 710.5V828H675.336L659 800H732V743L676 647H641.999V617Z" fill="#3374B1"/>
<path d="M855.999 617H749V647H783.999L749 710.5V828H822.663L838.999 800H765.999V743L821.999 647H855.999V617Z" fill="#3374B1"/>
<path d="M107 -1H214V29H179L214 92.5V210H140.336L124 182H197V125L141 29H107V-1Z" fill="#335C88"/>
<path d="M320.999 -1H214V29H248.999L214 92.5V210H287.663L303.999 182H230.999V125L286.999 29H320.999V-1Z" fill="#335C88"/>
<path d="M0 308H107V338H71.9999L107 401.5V519H33.3359L17 491H90V434L33.9999 338H0V308Z" fill="#335C88"/>
<path d="M214 308H107V338H141.999L107 401.5V519H180.663L196.999 491H123.999V434L179.999 338H214V308Z" fill="#335C88"/>
<path d="M213.999 617H321V647H286L321 710.5V828H247.336L231 800H304V743L248 647H213.999V617Z" fill="#335C88"/>
<path d="M428 617H321V647H355.999L321 710.5V828H394.663L410.999 800H337.999V743L393.999 647H428V617Z" fill="#335C88"/>
<path d="M-107 -1H-0.000137329V29H-35.0001L-0.000137329 92.5V210H-73.6641L-90 182H-17V125L-73.0001 29H-107V-1Z" fill="#A5A196"/>
<path d="M107 -1H-0.000137329V29H34.9994L-0.000137329 92.5V210H73.6633L89.9993 182H16.9993V125L72.9994 29H107V-1Z" fill="#A5A196"/>
<path d="M748.999 -1H856V29H821L856 92.5V210H782.336L766 182H839V125L783 29H748.999V-1Z" fill="#A5A196"/>
<path d="M962.999 -1H856V29H890.999L856 92.5V210H929.663L945.999 182H872.999V125L928.999 29H962.999V-1Z" fill="#A5A196"/>
<path d="M641.999 308H749V338H714L749 401.5V519H675.336L659 491H732V434L676 338H641.999V308Z" fill="#A5A196"/>
<path d="M855.999 308H749V338H783.999L749 401.5V519H822.663L838.999 491H765.999V434L821.999 338H855.999V308Z" fill="#A5A196"/>
<path d="M641.999 308H535L535 278H570L535 214.5V97H608.664L625 125H552L552 182L608 278H642L641.999 308Z" fill="#335C88"/>
<path d="M428.001 308H535L535 278H500L535 214.5V97H461.337L445 125H518.001L518 182L462 278H428.001V308Z" fill="#335C88"/>
<path d="M749 617H641.999L641.999 587H676.999L641.999 523.5V406H715.663L732 434H658.999L659 491L714.999 587H748.999L749 617Z" fill="#335C88"/>
<path d="M535 617H641.999L641.999 587H607L641.999 523.5V406H568.336L551.999 434H625L624.999 491L569 587H535L535 617Z" fill="#335C88"/>
<path d="M106.999 926H-0.000595093V896H34.9994L-0.000595093 832.5V715H73.6633L90 743H16.9993L17 800L72.9994 896H106.999V926Z" fill="#335C88"/>
<path d="M-107 926H-0.000595093V896H-35.0001L-0.000595093 832.5V715H-73.6641L-90 743H-17V800L-73.0001 896H-107V926Z" fill="#335C88"/>
<path d="M962.999 926H855.999V896H890.999L855.999 832.5V715H929.663L945.999 743H872.999V800L928.999 896H962.999V926Z" fill="#335C88"/>
<path d="M749 926H855.999V896H821L855.999 832.5V715H782.336L765.999 743H839L838.999 800L783 896H749V926Z" fill="#335C88"/>
<path d="M427.999 308H321L320.999 278H355.999L320.999 214.5V97H394.663L410.999 125H337.999V182L393.999 278H427.999V308Z" fill="#719FD1"/>
<path d="M214 308H321L320.999 278H286L320.999 214.5V97H247.336L230.999 125H304L303.999 182L248 278H214V308Z" fill="#719FD1"/>
<path d="M107 617H0L-0.000595093 587H34.9994L-0.000595093 523.5V406H73.6633L90 434H16.9993L17 491L72.9994 587H106.999L107 617Z" fill="#719FD1"/>
<path d="M-107 617H0L-0.000595093 587H-35.0001L-0.000595093 523.5V406H-73.6641L-90 434H-17V491L-73.0001 587H-107V617Z" fill="#719FD1"/>
<path d="M320.999 926H213.999V896H248.999L213.999 832.5V715H287.663L304 743H230.999L231 800L286.999 896H320.999V926Z" fill="#719FD1"/>
<path d="M106.999 926H213.999V896H179L213.999 832.5V715H140.336L123.999 743H197L196.999 800L141 896H106.999V926Z" fill="#719FD1"/>
<path d="M535 617H428L427.999 587H462.999L427.999 523.5V406H501.663L518 434H444.999L445 491L500.999 587H535L535 617Z" fill="#719FD1"/>
<path d="M321 617H428L427.999 587H393L427.999 523.5V406H354.336L337.999 434H411L410.999 491L355 587H321L321 617Z" fill="#719FD1"/>
<path d="M749 926H641.999V896H676.999L641.999 832.5V715H715.663L732 743H658.999L659 800L714.999 896H749V926Z" fill="#719FD1"/>
<path d="M535 926H641.999V896H607L641.999 832.5V715H568.336L551.999 743H625L624.999 800L569 896H535V926Z" fill="#719FD1"/>
<path d="M855.999 308H749L748.999 278H783.999L748.999 214.5V97H822.663L839 125H765.999L766 182L821.999 278H855.999V308Z" fill="#719FD1"/>
<path d="M641.999 308H749L748.999 278H714L748.999 214.5V97H675.336L658.999 125H732L731.999 182L676 278H642L641.999 308Z" fill="#719FD1"/>
<path d="M962.999 617H855.999L855.999 587H890.999L855.999 523.5V406H929.663L945.999 434H872.999V491L928.999 587H962.999V617Z" fill="#719FD1"/>
<path d="M749 617H855.999L855.999 587H821L855.999 523.5V406H782.336L765.999 434H839L838.999 491L783 587H748.999L749 617Z" fill="#719FD1"/>
<path d="M214 308H107L106.999 278H141.999L106.999 214.5V97H180.663L197 125H123.999L124 182L179.999 278H214V308Z" fill="#3374B1"/>
<path d="M0 308H107L106.999 278H71.9999L106.999 214.5V97H33.3359L16.9993 125H90L89.9993 182L33.9999 278H0V308Z" fill="#3374B1"/>
<path d="M321 617H213.999L213.999 587H248.999L213.999 523.5V406H287.663L304 434H230.999L231 491L286.999 587H321L321 617Z" fill="#3374B1"/>
<path d="M107 617H213.999L213.999 587H179L213.999 523.5V406H140.336L123.999 434H197L196.999 491L141 587H106.999L107 617Z" fill="#3374B1"/>
<path d="M535 926H427.999V896H462.999L427.999 832.5V715H501.663L518 743H444.999L445 800L500.999 896H535V926Z" fill="#3374B1"/>
<path d="M320.999 926H427.999V896H393L427.999 832.5V715H354.336L337.999 743H411L410.999 800L355 896H320.999V926Z" fill="#3374B1"/>
</g>
<defs>
<clipPath id="clip0_3_174">
<rect width="856" height="926" fill="white"/>
</clipPath>
</defs>
</svg>
