<svg width="100%" height="100%" viewBox="0 0 428 463" fill="none" xmlns="http://www.w3.org/2000/svg">
<g clip-path="url(#clip0_3_174)">
<rect width="428" height="463" fill="#5C89C4"/>
<path d="M160.5 0H214V15H196.5L214 46.75V105.5H177.168L169 91.5001H205.501V63L177.5 15H160.5V0Z" fill="#A5A196"/>
<path d="M267.5 0H214V15H231.5L214 46.75V105.5H250.832L259 91.5001H222.5V63L250.5 15H267.5V0Z" fill="#A5A196"/>
<path d="M107 154.5H160.5V169.5H143L160.5 201.25V260H123.668L115.5 246H152V217.5L124 169.5H107V154.5Z" fill="#A5A196"/>
<path d="M214 154.5H160.5V169.5H178L160.5 201.25V260H197.332L205.5 246H169V217.5L197 169.5H214V154.5Z" fill="#A5A196"/>
<path d="M0.00012207 309H53.5001V324H36.0001L53.5001 355.751V414.501H16.6681L8.50012 400.501H45.0001V372.001L17.0001 324H0.00012207V309Z" fill="#A5A196"/>
<path d="M107 309H53.5001V324H70.9998L53.5001 355.751V414.501H90.3318L98.4998 400.501H61.9998V372.001L89.9999 324H107V309Z" fill="#A5A196"/>
<path d="M214 309H267.5V324H250L267.5 355.751V414.501H230.668L222.5 400.501H259V372.001L231 324H214V309Z" fill="#A5A196"/>
<path d="M321 309H267.5V324H285L267.5 355.751V414.501H304.332L312.5 400.501H276V372.001L304 324H321V309Z" fill="#A5A196"/>
<path d="M267.5 0H321V15H303.5L321 46.75V105.5H284.168L276 91.5001H312.5V63L284.5 15H267.5V0Z" fill="#3374B1"/>
<path d="M374.5 0H321V15H338.5L321 46.75V105.5H357.832L366 91.5001H329.5V63L357.5 15H374.5V0Z" fill="#3374B1"/>
<path d="M214 154.5H267.5V169.5H250L267.5 201.25V260H230.668L222.5 246H259V217.5L231 169.5H214V154.5Z" fill="#3374B1"/>
<path d="M321 154.5H267.5V169.5H285L267.5 201.25V260H304.332L312.5 246H276V217.5L304 169.5H321V154.5Z" fill="#3374B1"/>
<path d="M321 309H374.5V324H357L374.5 355.751V414.501H337.668L329.5 400.501H366V372.001L338 324H321V309Z" fill="#3374B1"/>
<path d="M428 309H374.5V324H392L374.5 355.751V414.501H411.332L419.5 400.501H383V372.001L411 324H428V309Z" fill="#3374B1"/>
<path d="M53.5001 0H107V15H89.5001L107 46.75V105.5H70.1681L62.0001 91.5001H98.5001V63L70.5001 15H53.5001V0Z" fill="#335C88"/>
<path d="M160.5 0H107V15H124.5L107 46.75V105.5H143.832L152 91.5001H115.5V63L143.5 15H160.5V0Z" fill="#335C88"/>
<path d="M0.00012207 154.5H53.5001V169.5H36.0001L53.5001 201.25V260H16.6681L8.50012 246H45.0001V217.5L17.0001 169.5H0.00012207V154.5Z" fill="#335C88"/>
<path d="M107 154.5H53.5001V169.5H70.9998L53.5001 201.25V260H90.3318L98.4998 246H61.9998V217.5L89.9999 169.5H107V154.5Z" fill="#335C88"/>
<path d="M107 309H160.5V324H143L160.5 355.751V414.501H123.668L115.5 400.501H152V372.001L124 324H107V309Z" fill="#335C88"/>
<path d="M214 309H160.5V324H178L160.5 355.751V414.501H197.332L205.5 400.501H169V372.001L197 324H214V309Z" fill="#335C88"/>
<path d="M-53.5 0H-3.8147e-05V15H-17.5L-3.8147e-05 46.75V105.5H-36.832L-45 91.5001H-8.49998V63L-36.5001 15H-53.5V0Z" fill="#A5A196"/>
<path d="M53.4997 0H-3.8147e-05V15H17.4997L-3.8147e-05 46.75V105.5H36.8317L44.9997 91.5001H8.49966V63L36.4997 15H53.4997V0Z" fill="#A5A196"/>
<path d="M374.5 0H428V15H410.5L428 46.75V105.5H391.168L383 91.5001H419.5V63L391.5 15H374.5V0Z" fill="#A5A196"/>
<path d="M481.5 0H428V15H445.5L428 46.75V105.5H464.832L473 91.5001H436.5V63L464.5 15H481.5V0Z" fill="#A5A196"/>
<path d="M321 154.5H374.5V169.5H357L374.5 201.25V260H337.668L329.5 246H366V217.5L338 169.5H321V154.5Z" fill="#A5A196"/>
<path d="M428 154.5H374.5V169.5H392L374.5 201.25V260H411.332L419.5 246H383V217.5L411 169.5H428V154.5Z" fill="#A5A196"/>
<path d="M321 154.5H267.5V139.5H285L267.5 107.75V49H304.332L312.5 63H276V91.5L304 139.5H321V154.5Z" fill="#335C88"/>
<path d="M214 154.5H267.5V139.5H250L267.5 107.75V49H230.668L222.5 63H259.001V91.5L231 139.5H214V154.5Z" fill="#335C88"/>
<path d="M374.5 309.001H321V294.001H338.5L321 262.251V203.5H357.832L366 217.5H329.5V246.001L357.5 294.001H374.5V309.001Z" fill="#335C88"/>
<path d="M267.5 309.001H321V294.001H303.5L321 262.251V203.5H284.168L276 217.5H312.5V246.001L284.5 294.001H267.5V309.001Z" fill="#335C88"/>
<path d="M53.4998 463.5H-0.000160217V448.5H17.4998L-0.000160217 416.75V358H36.8318L44.9998 372H8.49978V400.5L36.4999 448.5H53.4998V463.5Z" fill="#335C88"/>
<path d="M-53.4999 463.5H-0.000160217V448.5H-17.4999L-0.000160217 416.75V358H-36.8319L-44.9999 372H-8.49986V400.5L-36.4999 448.5H-53.4999V463.5Z" fill="#335C88"/>
<path d="M481.5 463.5H428V448.5H445.5L428 416.75V358H464.832L473 372H436.5V400.5L464.5 448.5H481.5V463.5Z" fill="#335C88"/>
<path d="M374.5 463.5H428V448.5H410.5L428 416.75V358H391.168L383 372H419.5V400.5L391.5 448.5H374.5V463.5Z" fill="#335C88"/>
<path d="M214 154.5H160.5V139.5H178L160.5 107.75V49H197.332L205.5 63H169V91.5L197 139.5H214V154.5Z" fill="#719FD1"/>
<path d="M107 154.5H160.5V139.5H143L160.5 107.75V49H123.668L115.5 63H152V91.5L124 139.5H107V154.5Z" fill="#719FD1"/>
<path d="M53.4998 309.001H-0.000160217V294.001H17.4998L-0.000160217 262.251V203.5H36.8318L44.9998 217.5H8.49978V246.001L36.4999 294.001H53.4998V309.001Z" fill="#719FD1"/>
<path d="M-53.4999 309.001H-0.000160217V294.001H-17.4999L-0.000160217 262.251V203.5H-36.8319L-44.9999 217.5H-8.49986V246.001L-36.4999 294.001H-53.4999V309.001Z" fill="#719FD1"/>
<path d="M160.5 463.5H107V448.5H124.5L107 416.75V358H143.832L152 372H115.5V400.5L143.5 448.5H160.5V463.5Z" fill="#719FD1"/>
<path d="M53.5001 463.5H107V448.5H89.5L107 416.75V358H70.168L62.0001 372H98.5001V400.5L70.5 448.5H53.5001V463.5Z" fill="#719FD1"/>
<path d="M267.5 309.001H214V294.001H231.5L214 262.251V203.5H250.832L259 217.5H222.5V246.001L250.5 294.001H267.5V309.001Z" fill="#719FD1"/>
<path d="M160.5 309.001H214V294.001H196.5L214 262.251V203.5H177.168L169 217.5H205.5V246.001L177.5 294.001H160.5V309.001Z" fill="#719FD1"/>
<path d="M374.5 463.5H321V448.5H338.5L321 416.75V358H357.832L366 372H329.5V400.5L357.5 448.5H374.5V463.5Z" fill="#719FD1"/>
<path d="M267.5 463.5H321V448.5H303.5L321 416.75V358H284.168L276 372H312.5V400.5L284.5 448.5H267.5V463.5Z" fill="#719FD1"/>
<path d="M428 154.5H374.5V139.5H392L374.5 107.75V49H411.332L419.5 63H383V91.5L411 139.5H428V154.5Z" fill="#719FD1"/>
<path d="M321 154.5H374.5V139.5H357L374.5 107.75V49H337.668L329.5 63H366V91.5L338 139.5H321V154.5Z" fill="#719FD1"/>
<path d="M481.5 309.001H428V294.001H445.5L428 262.251V203.5H464.832L473 217.5H436.5V246.001L464.5 294.001H481.5V309.001Z" fill="#719FD1"/>
<path d="M374.5 309.001H428V294.001H410.5L428 262.251V203.5H391.168L383 217.5H419.5V246.001L391.5 294.001H374.5V309.001Z" fill="#719FD1"/>
<path d="M107 154.5H53.4998V139.5H70.9998L53.4998 107.75V49H90.3318L98.4998 63H61.9998V91.5L89.9999 139.5H107V154.5Z" fill="#3374B1"/>
<path d="M0.00012207 154.5H53.4998V139.5H36.0001L53.4998 107.75V49H16.6681L8.50012 63H45.0001V91.5L17.0001 139.5H0.00012207V154.5Z" fill="#3374B1"/>
<path d="M160.5 309.001H107V294.001H124.5L107 262.251V203.5H143.832L152 217.5H115.5V246.001L143.5 294.001H160.5V309.001Z" fill="#3374B1"/>
<path d="M53.5001 309.001H107V294.001H89.5L107 262.251V203.5H70.168L62.0001 217.5H98.5001V246.001L70.5 294.001H53.5001V309.001Z" fill="#3374B1"/>
<path d="M267.5 463.5H214V448.5H231.5L214 416.75V358H250.832L259 372H222.5V400.5L250.5 448.5H267.5V463.5Z" fill="#3374B1"/>
<path d="M160.5 463.5H214V448.5H196.5L214 416.75V358H177.168L169 372H205.5V400.5L177.5 448.5H160.5V463.5Z" fill="#3374B1"/>
</g>
<defs>
<clipPath id="clip0_3_174">
<rect width="428" height="463" fill="white"/>
</clipPath>
</defs>
</svg>
